name C:\Users\antoi\Documents\MyRepositories\upper-imu-dc\Results\main_tracking\Case_76\FLX01_orientations_groundFrame.mot
datacolumns 13
datarows 25
range 5.01000000 5.25000000
endheader 
time	radius_imu_[0][0]	radius_imu_[0][1]	radius_imu_[0][2]	radius_imu_[1][0]	radius_imu_[1][1]	radius_imu_[1][2]	radius_imu_[2][0]	radius_imu_[2][1]	radius_imu_[2][2]	radius_imu_x	radius_imu_y	radius_imu_z	
          5.01000000	          0.26486935	         -0.89357503	          0.36244710	         -0.30393318	          0.27935033	          0.91081723	         -0.91513324	         -0.35140727	         -0.19759576	         -1.78442925	          0.37089219	          1.28263144	
          5.02000000	          0.26577382	         -0.88850458	          0.37406403	         -0.29889888	          0.29295061	          0.90820669	         -0.91652809	         -0.35318488	         -0.18771442	         -1.77461324	          0.38338733	          1.28014260	
          5.03000000	          0.26683228	         -0.88332534	          0.38540483	         -0.29372935	          0.30633880	          0.90547204	         -0.91789084	         -0.35481388	         -0.17771749	         -1.76460332	          0.39564651	          1.27743510	
          5.04000000	          0.26803377	         -0.87804691	          0.39647387	         -0.28843360	          0.31951960	          0.90261469	         -0.91921921	         -0.35628760	         -0.16761619	         -1.75440553	          0.40767274	          1.27451964	
          5.05000000	          0.26936661	         -0.87267784	          0.40727757	         -0.28302349	          0.33249836	          0.89963467	         -0.92051036	         -0.35760067	         -0.15742437	         -1.74402938	          0.41947122	          1.27140749	
          5.06000000	          0.27081813	         -0.86722553	          0.41782463	         -0.27751446	          0.34528103	          0.89653038	         -0.92176096	         -0.35874906	         -0.14715927	         -1.73348863	          0.43104961	          1.26811091	
          5.07000000	          0.27237410	         -0.86169616	          0.42812625	         -0.27192652	          0.35787413	          0.89329843	         -0.92296713	         -0.35973023	         -0.13684239	         -1.72280243	          0.44241838	          1.26464361	
          5.08000000	          0.27401836	         -0.85609458	          0.43819632	         -0.26628493	          0.37028459	          0.88993351	         -0.92412460	         -0.36054320	         -0.12650031	         -1.71199619	          0.45359110	          1.26102123	
          5.09000000	          0.27573254	         -0.85042430	          0.44805143	         -0.26062049	          0.38251970	          0.88642859	         -0.92522890	         -0.36118859	         -0.11616487	         -1.70110197	          0.46458456	          1.25726159	
          5.10000000	          0.27749626	         -0.84468739	          0.45771065	         -0.25496894	          0.39458699	          0.88277514	         -0.92627570	         -0.36166880	         -0.10587264	         -1.69015782	          0.47541858	          1.25338448	
          5.11000000	          0.27928761	         -0.83888448	          0.46719510	         -0.24936961	          0.40649423	          0.87896373	         -0.92726114	         -0.36198794	         -0.09566349	         -1.67920629	          0.48611570	          1.24941118	
          5.12000000	          0.28108398	         -0.83301473	          0.47652728	         -0.24386357	          0.41824936	          0.87498459	         -0.92818229	         -0.36215179	         -0.08557875	         -1.66829224	          0.49670042	          1.24536351	
          5.13000000	          0.28286289	         -0.82707596	          0.48573032	         -0.23849161	          0.42986044	          0.87082820	         -0.92903732	         -0.36216759	         -0.07565911	         -1.65746049	          0.50719848	          1.24126301	
          5.14000000	          0.28460269	         -0.82106476	          0.49482721	         -0.23329250	          0.44133554	          0.86648575	         -0.92982575	         -0.36204365	         -0.06594297	         -1.64675384	          0.51763599	          1.23713014	
          5.15000000	          0.28628315	         -0.81497680	          0.50384002	         -0.22830154	          0.45268254	          0.86194949	         -0.93054842	         -0.36178907	         -0.05646507	         -1.63621142	          0.52803856	          1.23298372	
          5.16000000	          0.28788606	         -0.80880709	          0.51278915	         -0.22354943	          0.46390888	          0.85721305	         -0.93120743	         -0.36141341	         -0.04725547	         -1.62586745	          0.53843046	          1.22884039	
          5.17000000	          0.28939480	         -0.80255048	          0.52169280	         -0.21906139	          0.47502144	          0.85227152	         -0.93180618	         -0.36092569	         -0.03833909	         -1.61575062	          0.54883396	          1.22471510	
          5.18000000	          0.29079726	         -0.79620143	          0.53056596	         -0.21485546	          0.48602616	          0.84712201	         -0.93234869	         -0.36033575	         -0.02973314	         -1.60588093	          0.55926811	          1.22061784	
          5.19000000	          0.29208333	         -0.78975482	          0.53942067	         -0.21094298	          0.49692834	          0.84176320	         -0.93283996	         -0.35965200	         -0.02144875	         -1.59627156	          0.56974895	          1.21655670	
          5.20000000	          0.29324756	         -0.78320597	          0.54826478	         -0.20732703	          0.50773193	          0.83619602	         -0.93328526	         -0.35888255	         -0.01348862	         -1.58692585	          0.58028796	          1.21253471	
          5.21000000	          0.29428937	         -0.77655086	          0.55710191	         -0.20400225	          0.51843977	          0.83042355	         -0.93368991	         -0.35803487	         -0.00584681	         -1.57783697	          0.59089189	          1.20854978	
          5.22000000	          0.29521346	         -0.76978610	          0.56593141	         -0.20095476	          0.52905366	          0.82445097	         -0.93405899	         -0.35711564	          0.00149158	         -1.56898714	          0.60156255	          1.20459395	
          5.23000000	          0.29602992	         -0.76290916	          0.57474856	         -0.19816271	          0.53957441	          0.81828540	         -0.93439704	         -0.35613069	          0.00855002	         -1.56034800	          0.61229685	          1.20065327	
          5.24000000	          0.29675402	         -0.75591840	          0.58354471	         -0.19559760	          0.55000174	          0.81193575	         -0.93470778	         -0.35508514	          0.01535940	         -1.55188157	          0.62308685	          1.19670790	
          5.25000000	          0.29740604	         -0.74881307	          0.59230789	         -0.19322596	          0.56033424	          0.80541248	         -0.93499378	         -0.35398380	          0.02195667	         -1.54354168	          0.63392025	          1.19273203	
